<svg width="56" height="56" viewBox="0 0 56 56" fill="none" xmlns="http://www.w3.org/2000/svg">
<g filter="url(#filter0_d_58808_2037)">
<path d="M46.0223 42.0224C45.3611 42.6836 44.9854 43.5145 44.8662 44.3752L34.9352 34.4441L38.4441 30.9352L48.3752 40.8662C47.5153 40.9862 46.6836 41.3611 46.0223 42.0224Z" fill="#495BCC"/>
<path d="M47.8621 47.9975C50.146 47.9975 51.9975 46.146 51.9975 43.8621C51.9975 41.5781 50.146 39.7267 47.8621 39.7267C45.5782 39.7267 43.7267 41.5781 43.7267 43.8621C43.7267 46.146 45.5782 47.9975 47.8621 47.9975Z" fill="#E61C44"/>
<path d="M38 27.9988L11.0179 1.16944L4 0L5.17019 7.01794L32.1515 33.8473L38 27.9988Z" fill="url(#paint0_linear_58808_2037)"/>
<path d="M9.9776 42.0224C10.6388 42.6836 11.0146 43.5145 11.1337 44.3753L21.0648 34.4442L17.5558 30.9353L7.62476 40.8662C8.48463 40.9862 9.31629 41.3611 9.9776 42.0224Z" fill="#495BCC"/>
<path d="M8.13541 47.9975C10.4193 47.9975 12.2708 46.146 12.2708 43.8621C12.2708 41.5781 10.4193 39.7267 8.13541 39.7267C5.85148 39.7267 4 41.5781 4 43.8621C4 46.146 5.85148 47.9975 8.13541 47.9975Z" fill="#E61C44"/>
<path d="M23.0626 34.7868L17.2131 28.9374L44.982 1.16944L51.9999 0L50.8306 7.01794L23.0626 34.7868Z" fill="url(#paint1_linear_58808_2037)"/>
<path d="M33.8278 38.016L42.0159 29.8279V26.3189H38.507L30.3188 34.507V38.016H33.8278Z" fill="#E61C44"/>
<path d="M22.1721 38.016L13.984 29.8279V26.3189H17.493L25.6811 34.507V38.016H22.1721Z" fill="#E61C44"/>
</g>
<defs>
<filter id="filter0_d_58808_2037" x="0" y="0" width="55.9999" height="55.9975" filterUnits="userSpaceOnUse" color-interpolation-filters="sRGB">
<feFlood flood-opacity="0" result="BackgroundImageFix"/>
<feColorMatrix in="SourceAlpha" type="matrix" values="0 0 0 0 0 0 0 0 0 0 0 0 0 0 0 0 0 0 127 0" result="hardAlpha"/>
<feOffset dy="4"/>
<feGaussianBlur stdDeviation="2"/>
<feComposite in2="hardAlpha" operator="out"/>
<feColorMatrix type="matrix" values="0 0 0 0 0 0 0 0 0 0 0 0 0 0 0 0 0 0 0.25 0"/>
<feBlend mode="normal" in2="BackgroundImageFix" result="effect1_dropShadow_58808_2037"/>
<feBlend mode="normal" in="SourceGraphic" in2="effect1_dropShadow_58808_2037" result="shape"/>
</filter>
<linearGradient id="paint0_linear_58808_2037" x1="17.4527" y1="10.5026" x2="47.3463" y2="44.6334" gradientUnits="userSpaceOnUse">
<stop stop-color="white"/>
<stop offset="1" stop-color="#C5C9F7"/>
</linearGradient>
<linearGradient id="paint1_linear_58808_2037" x1="30.9771" y1="10.7941" x2="52.239" y2="32.0543" gradientUnits="userSpaceOnUse">
<stop stop-color="white"/>
<stop offset="1" stop-color="#C5C9F7"/>
</linearGradient>
</defs>
</svg>
