<svg width="50" height="56" viewBox="0 0 50 56" fill="none" xmlns="http://www.w3.org/2000/svg">
<g filter="url(#filter0_d_58820_3961)">
<path d="M43.8759 25.1119L41.8866 25.6648V31.2913C41.8869 32.1494 41.8218 33.0063 41.692 33.8547L43.408 33.1508C44.1749 32.8362 44.8307 32.3017 45.2921 31.6151C45.7536 30.9286 46 30.1209 46 29.2946V26.7186C46 26.4613 45.9403 26.2075 45.8255 25.977C45.7106 25.7465 45.5439 25.5456 45.3382 25.39C45.1325 25.2344 44.8935 25.1283 44.6398 25.0801C44.3861 25.0318 44.1247 25.0427 43.8759 25.1119Z" fill="url(#paint0_linear_58820_3961)"/>
<path d="M8.11169 31.2913V25.6648L6.12406 25.1119C5.87531 25.0427 5.61387 25.0318 5.3602 25.0801C5.10653 25.1283 4.8675 25.2344 4.66181 25.39C4.45612 25.5456 4.28935 25.7465 4.17454 25.977C4.05973 26.2075 3.99999 26.4613 4 26.7186V29.2946C3.99995 30.1206 4.24611 30.9281 4.70727 31.6146C5.16844 32.301 5.82383 32.8356 6.59031 33.1504L8.3063 33.8543C8.17631 33.0061 8.11125 32.1493 8.11169 31.2913Z" fill="url(#paint1_linear_58820_3961)"/>
<path d="M35.0306 14.0029C31.7641 14.9168 28.3925 15.4053 25 15.4562C21.6075 15.4053 18.2359 14.9168 14.9694 14.0029C14.2365 21.4504 8.11169 25.6648 8.11169 25.6648V31.2913C8.14308 35.7335 9.93617 39.9831 13.0999 43.1133C16.2635 46.2434 20.5411 48 24.9996 48C29.458 48 33.7356 46.2434 36.8993 43.1133C40.063 39.9831 41.8561 35.7335 41.8875 31.2913V25.6648C41.8875 25.6648 35.7635 21.4504 35.0306 14.0029Z" fill="url(#paint2_linear_58820_3961)"/>
<path d="M24.9999 15.4562C21.6074 15.4053 18.2358 14.9168 14.9693 14.0028C14.2364 21.4504 8.11161 25.6648 8.11161 25.6648C8.11161 25.6648 0.385448 5.91889 14.4294 5.33131C14.4294 5.33131 17.2558 -3.94365 33.0843 1.97346C48.4718 7.72501 43.698 22.5422 41.8882 25.6648C41.8882 25.6648 35.7634 21.4504 35.0305 14.0028C31.764 14.9168 28.3924 15.4053 24.9999 15.4562Z" fill="#E61C44"/>
<path d="M14.0624 33.8547C14.6419 36.3115 16.0376 38.5012 18.023 40.0684C20.0084 41.6356 22.467 42.4884 25 42.4884C27.5329 42.4884 29.9915 41.6356 31.9769 40.0684C33.9623 38.5012 35.358 36.3115 35.9375 33.8547H14.0624Z" fill="#495BCC"/>
<path d="M33.0736 39.0679C32.028 40.1489 30.7744 41.0089 29.3878 41.5965C28.0011 42.184 26.5098 42.487 25.003 42.4874C23.4962 42.4878 22.0047 42.1856 20.6178 41.5987C19.2308 41.0119 17.9768 40.1526 16.9307 39.072C16.9307 39.072 19.9357 37.4206 25.0042 37.4206C29.9178 37.4206 32.8936 38.9719 33.0736 39.0679Z" fill="#E61C44"/>
<path d="M15.9509 26.189C15.806 26.1892 15.6644 26.1466 15.5439 26.0666C15.4233 25.9866 15.3293 25.8727 15.2738 25.7395C15.2182 25.6062 15.2036 25.4595 15.2317 25.3179C15.2599 25.1764 15.3295 25.0463 15.4319 24.9442C16.3081 24.1998 17.4219 23.7909 18.5734 23.7909C19.7249 23.7909 20.8387 24.1998 21.7149 24.9442C21.8487 25.0815 21.9229 25.2657 21.9217 25.4571C21.9205 25.6485 21.8439 25.8317 21.7083 25.9673C21.5728 26.103 21.3893 26.1801 21.1972 26.1822C21.0052 26.1843 20.82 26.1111 20.6816 25.9784C20.0816 25.5075 19.3402 25.2511 18.5764 25.2503C17.8126 25.2495 17.0707 25.5045 16.4698 25.9743C16.4018 26.0424 16.3209 26.0964 16.2319 26.1332C16.1428 26.1701 16.0473 26.1891 15.9509 26.189Z" fill="#495BCC"/>
<path d="M34.0492 26.189C33.8569 26.1899 33.672 26.115 33.5349 25.9805C32.9341 25.5087 32.1914 25.2522 31.4265 25.2522C30.6616 25.2522 29.9189 25.5087 29.3181 25.9805C29.1796 26.1131 28.9944 26.1862 28.8023 26.1841C28.6103 26.1819 28.4268 26.1047 28.2913 25.969C28.1558 25.8333 28.0793 25.6501 28.0781 25.4587C28.077 25.2673 28.1513 25.0832 28.2852 24.9459C29.1613 24.2013 30.2752 23.7923 31.4267 23.7923C32.5782 23.7923 33.6921 24.2013 34.5682 24.9459C34.6704 25.048 34.74 25.178 34.768 25.3195C34.7961 25.461 34.7814 25.6076 34.7259 25.7408C34.6703 25.874 34.5764 25.9877 34.456 26.0678C34.3355 26.1478 34.194 26.1904 34.0492 26.1903V26.189Z" fill="#495BCC"/>
</g>
<defs>
<filter id="filter0_d_58820_3961" x="0" y="0" width="50" height="56" filterUnits="userSpaceOnUse" color-interpolation-filters="sRGB">
<feFlood flood-opacity="0" result="BackgroundImageFix"/>
<feColorMatrix in="SourceAlpha" type="matrix" values="0 0 0 0 0 0 0 0 0 0 0 0 0 0 0 0 0 0 127 0" result="hardAlpha"/>
<feOffset dy="4"/>
<feGaussianBlur stdDeviation="2"/>
<feComposite in2="hardAlpha" operator="out"/>
<feColorMatrix type="matrix" values="0 0 0 0 0 0 0 0 0 0 0 0 0 0 0 0 0 0 0.25 0"/>
<feBlend mode="normal" in2="BackgroundImageFix" result="effect1_dropShadow_58820_3961"/>
<feBlend mode="normal" in="SourceGraphic" in2="effect1_dropShadow_58820_3961" result="shape"/>
</filter>
<linearGradient id="paint0_linear_58820_3961" x1="43.3965" y1="27.7824" x2="47.6452" y2="29.8611" gradientUnits="userSpaceOnUse">
<stop stop-color="white"/>
<stop offset="1" stop-color="#C5C9F7"/>
</linearGradient>
<linearGradient id="paint1_linear_58820_3961" x1="5.70386" y1="27.7823" x2="9.95141" y2="29.8597" gradientUnits="userSpaceOnUse">
<stop stop-color="white"/>
<stop offset="1" stop-color="#C5C9F7"/>
</linearGradient>
<linearGradient id="paint2_linear_58820_3961" x1="21.4756" y1="24.552" x2="42.2545" y2="45.1938" gradientUnits="userSpaceOnUse">
<stop stop-color="white"/>
<stop offset="1" stop-color="#C5C9F7"/>
</linearGradient>
</defs>
</svg>
