<svg width="56" height="56" viewBox="0 0 56 56" fill="none" xmlns="http://www.w3.org/2000/svg">
<g clip-path="url(#clip0_58808_2577)" filter="url(#filter0_d_58808_2577)">
<path d="M31.3956 8.74121C31.2164 8.08151 31.6062 7.39998 32.2672 7.22082C34.5479 6.60103 36.2474 4.73562 36.7074 2.47917H33.1146C32.4294 2.47917 31.875 1.92474 31.875 1.23958C31.875 0.554424 32.4294 0 33.1146 0H38.0729C38.7581 0 39.3125 0.554424 39.3125 1.23958C39.3125 5.14716 36.6833 8.5899 32.9161 9.6128C32.2777 9.79015 31.5799 9.41877 31.3956 8.74121V8.74121Z" fill="#495BCC"/>
<path d="M29.3958 11.1563V18.5938C29.3958 19.2878 28.8505 19.8333 28.1562 19.8333C27.462 19.8333 26.9166 19.2878 26.9166 18.5938V11.1563C26.9166 10.462 27.462 9.91667 28.1562 9.91667C28.8505 9.91667 29.3958 10.462 29.3958 11.1563Z" fill="#495BCC"/>
<path d="M23.3964 9.6128C19.6292 8.5899 17 5.14716 17 1.23958C17 0.554424 17.5544 0 18.2396 0H23.1979C23.8831 0 24.4375 0.554424 24.4375 1.23958C24.4375 1.92474 23.8831 2.47917 23.1979 2.47917H19.605C20.065 4.73562 21.7646 6.60103 24.0452 7.22082C24.7062 7.39998 25.096 8.08151 24.9168 8.74121C24.7325 9.41902 24.0345 9.79006 23.3964 9.6128Z" fill="#495BCC"/>
<path d="M33.625 26H22.375C21.5874 26 20.9688 26.6848 20.9688 27.5566V46.4434C20.9688 47.315 21.5874 48 22.375 48H33.625C34.4126 48 35.0312 47.315 35.0312 46.4434V27.5566C35.0312 26.6848 34.4126 26 33.625 26Z" fill="url(#paint0_linear_58808_2577)"/>
<path d="M47.6875 16.25H46.2812V14.8438C46.2812 14.0665 45.6523 13.4375 44.875 13.4375C44.0977 13.4375 43.4688 14.0665 43.4688 14.8438V16.25H42.0625C41.2852 16.25 40.6562 16.879 40.6562 17.6562C40.6562 18.4335 41.2852 19.0625 42.0625 19.0625H43.4688V20.4688C43.4688 21.246 44.0977 21.875 44.875 21.875C45.6523 21.875 46.2812 21.246 46.2812 20.4688V19.0625H47.6875C48.4648 19.0625 49.0938 18.4335 49.0938 17.6562C49.0938 16.879 48.4648 16.25 47.6875 16.25Z" fill="url(#paint1_linear_58808_2577)"/>
<path d="M13.9375 22.4375H12.5312V21.0312C12.5312 20.254 11.9023 19.625 11.125 19.625C10.3477 19.625 9.71875 20.254 9.71875 21.0312V22.4375H8.3125C7.53522 22.4375 6.90625 23.0665 6.90625 23.8438C6.90625 24.621 7.53522 25.25 8.3125 25.25H9.71875V26.6562C9.71875 27.4335 10.3477 28.0625 11.125 28.0625C11.9023 28.0625 12.5312 27.4335 12.5312 26.6562V25.25H13.9375C14.7148 25.25 15.3438 24.621 15.3438 23.8438C15.3438 23.0665 14.7148 22.4375 13.9375 22.4375Z" fill="url(#paint2_linear_58808_2577)"/>
<path d="M50.5938 48H39.25C38.4727 48 37.8438 47.2055 37.8438 46.2237V31.7763C37.8438 30.7945 38.4727 30 39.25 30H50.5938C51.371 30 52 30.7945 52 31.7763V46.2237C52 47.2055 51.371 48 50.5938 48Z" fill="#E61C44"/>
<path d="M16.75 48H5.40625C4.62897 48 4 47.1153 4 46.022V37.978C4 36.8847 4.62897 36 5.40625 36H16.75C17.5273 36 18.1562 36.8847 18.1562 37.978V46.022C18.1562 47.1153 17.5273 48 16.75 48Z" fill="#E61C44"/>
<path d="M33.1146 0H23.198C22.5037 0 21.9584 0.545334 21.9584 1.23958V6.19792C21.9584 9.61917 24.735 12.3958 28.1563 12.3958C31.5775 12.3958 34.3542 9.61917 34.3542 6.19792V1.23958C34.3542 0.545334 33.8089 0 33.1146 0Z" fill="url(#paint3_linear_58808_2577)"/>
<path d="M31.875 17.3542H24.4375C23.074 17.3542 21.9584 18.3995 21.9584 19.6771V20.8385C21.9584 21.4889 22.5037 22 23.198 22H33.1146C33.8089 22 34.3542 21.4889 34.3542 20.8385V19.6771C34.3542 18.3995 33.2386 17.3542 31.875 17.3542Z" fill="#495BCC"/>
</g>
<defs>
<filter id="filter0_d_58808_2577" x="0" y="0" width="56" height="56" filterUnits="userSpaceOnUse" color-interpolation-filters="sRGB">
<feFlood flood-opacity="0" result="BackgroundImageFix"/>
<feColorMatrix in="SourceAlpha" type="matrix" values="0 0 0 0 0 0 0 0 0 0 0 0 0 0 0 0 0 0 127 0" result="hardAlpha"/>
<feOffset dy="4"/>
<feGaussianBlur stdDeviation="2"/>
<feComposite in2="hardAlpha" operator="out"/>
<feColorMatrix type="matrix" values="0 0 0 0 0 0 0 0 0 0 0 0 0 0 0 0 0 0 0.25 0"/>
<feBlend mode="normal" in2="BackgroundImageFix" result="effect1_dropShadow_58808_2577"/>
<feBlend mode="normal" in="SourceGraphic" in2="effect1_dropShadow_58808_2577" result="shape"/>
</filter>
<linearGradient id="paint0_linear_58808_2577" x1="26.5328" y1="32.8265" x2="45.1745" y2="46.3702" gradientUnits="userSpaceOnUse">
<stop stop-color="white"/>
<stop offset="1" stop-color="#C5C9F7"/>
</linearGradient>
<linearGradient id="paint1_linear_58808_2577" x1="43.9947" y1="16.0556" x2="51.451" y2="24.5305" gradientUnits="userSpaceOnUse">
<stop stop-color="white"/>
<stop offset="1" stop-color="#C5C9F7"/>
</linearGradient>
<linearGradient id="paint2_linear_58808_2577" x1="10.2447" y1="22.2431" x2="17.701" y2="30.718" gradientUnits="userSpaceOnUse">
<stop stop-color="white"/>
<stop offset="1" stop-color="#C5C9F7"/>
</linearGradient>
<linearGradient id="paint3_linear_58808_2577" x1="26.863" y1="3.84636" x2="37.8173" y2="16.2971" gradientUnits="userSpaceOnUse">
<stop stop-color="white"/>
<stop offset="1" stop-color="#C5C9F7"/>
</linearGradient>
<clipPath id="clip0_58808_2577">
<rect width="48" height="48" fill="white" transform="translate(4)"/>
</clipPath>
</defs>
</svg>
